# xmcd
#
# Track frame offsets: 
#        150
#        17950
#        35292
#        52781
#        75370
#        91923
#        112993
#        125368
#        153182
#        171045
#        191040
#        204155
#
# Disc length: 2902 seconds
#
# Revision: 0
# Processed by: cddbd v1.5.2PL0 Copyright (c) Steve Scherf et al.
# Submitted via: ExactAudioCopy v1.0b4
#
DISCID=820b540c
DTITLE=Sugar Ray And The Bluetones - Seeing Is Believing
DYEAR=2016
DGENRE=Blues
TTITLE0=Sweet Baby
TTITLE1=Seeing Is Believing
TTITLE2=Noontime Bell
TTITLE3=Keep On Sailing
TTITLE4=Blind Date
TTITLE5=You Know I Love You
TTITLE6=Misses Blues
TTITLE7=It Ain't Funny
TTITLE8=Not Me
TTITLE9=Got A Gal
TTITLE10=Two Hundred Dollars Too Long
TTITLE11=It's Been A Long Time
EXTD=
EXTT0=
EXTT1=
EXTT2=
EXTT3=
EXTT4=
EXTT5=
EXTT6=
EXTT7=
EXTT8=
EXTT9=
EXTT10=
EXTT11=
PLAYORDER=
